<mxfile host="app.diagrams.net" modified="2023-08-15T15:26:11.633Z" agent="Mozilla/5.0 (X11; Linux x86_64) AppleWebKit/537.36 (KHTML, like Gecko) Chrome/114.0.0.0 Safari/537.36" etag="6NZtN0blqMltLaK0mkKF" version="21.6.8" type="github" pages="2">
  <diagram id="C5RBs43oDa-KdzZeNtuy" name="Page-1">
    <mxGraphModel dx="800" dy="450" grid="1" gridSize="10" guides="1" tooltips="1" connect="1" arrows="1" fold="1" page="1" pageScale="1" pageWidth="827" pageHeight="1169" math="0" shadow="0">
      <root>
        <mxCell id="WIyWlLk6GJQsqaUBKTNV-0" />
        <mxCell id="WIyWlLk6GJQsqaUBKTNV-1" parent="WIyWlLk6GJQsqaUBKTNV-0" />
        <mxCell id="nr3jRr0A-heHZrgYLzdE-1" value="Diagram Heading" style="shape=umlFrame;whiteSpace=wrap;html=1;pointerEvents=0;recursiveResize=0;container=1;collapsible=0;width=160;" vertex="1" parent="WIyWlLk6GJQsqaUBKTNV-1">
          <mxGeometry x="40" y="40" width="800" height="460" as="geometry" />
        </mxCell>
        <mxCell id="nr3jRr0A-heHZrgYLzdE-10" value="Youtube" style="swimlane;fontStyle=1;align=center;verticalAlign=top;childLayout=stackLayout;horizontal=1;startSize=30;horizontalStack=0;resizeParent=1;resizeParentMax=0;resizeLast=0;collapsible=0;marginBottom=0;html=1;whiteSpace=wrap;" vertex="1" parent="nr3jRr0A-heHZrgYLzdE-1">
          <mxGeometry x="40" y="80" width="140" height="360" as="geometry" />
        </mxCell>
        <mxCell id="nr3jRr0A-heHZrgYLzdE-11" value="external structure" style="html=1;strokeColor=none;fillColor=none;align=center;verticalAlign=middle;spacingLeft=4;spacingRight=4;rotatable=0;points=[[0,0.5],[1,0.5]];resizeWidth=1;whiteSpace=wrap;" vertex="1" parent="nr3jRr0A-heHZrgYLzdE-10">
          <mxGeometry y="30" width="140" height="30" as="geometry" />
        </mxCell>
        <mxCell id="nr3jRr0A-heHZrgYLzdE-12" value="" style="swimlane;fontStyle=1;align=center;verticalAlign=top;horizontal=1;startSize=0;collapsible=0;marginBottom=0;html=1;strokeColor=none;fillColor=none;" vertex="1" parent="nr3jRr0A-heHZrgYLzdE-10">
          <mxGeometry y="60" width="140" height="300" as="geometry" />
        </mxCell>
        <mxCell id="nr3jRr0A-heHZrgYLzdE-14" value="Youtube Channel" style="html=1;align=center;verticalAlign=middle;rotatable=0;whiteSpace=wrap;" vertex="1" parent="nr3jRr0A-heHZrgYLzdE-12">
          <mxGeometry width="100" height="30" relative="1" as="geometry">
            <mxPoint x="20" y="20" as="offset" />
          </mxGeometry>
        </mxCell>
        <mxCell id="nr3jRr0A-heHZrgYLzdE-43" value="Youtube Videos" style="html=1;align=center;verticalAlign=middle;rotatable=0;whiteSpace=wrap;" vertex="1" parent="nr3jRr0A-heHZrgYLzdE-12">
          <mxGeometry width="100" height="30" relative="1" as="geometry">
            <mxPoint x="20" y="100" as="offset" />
          </mxGeometry>
        </mxCell>
        <mxCell id="nr3jRr0A-heHZrgYLzdE-44" value="Youtube Comments" style="html=1;align=center;verticalAlign=middle;rotatable=0;whiteSpace=wrap;" vertex="1" parent="nr3jRr0A-heHZrgYLzdE-12">
          <mxGeometry width="100" height="30" relative="1" as="geometry">
            <mxPoint x="20" y="180" as="offset" />
          </mxGeometry>
        </mxCell>
        <mxCell id="nr3jRr0A-heHZrgYLzdE-16" value="Redis" style="swimlane;fontStyle=1;align=center;verticalAlign=top;childLayout=stackLayout;horizontal=1;startSize=30;horizontalStack=0;resizeParent=1;resizeParentMax=0;resizeLast=0;collapsible=0;marginBottom=0;html=1;whiteSpace=wrap;" vertex="1" parent="nr3jRr0A-heHZrgYLzdE-1">
          <mxGeometry x="180" y="80" width="140" height="360" as="geometry" />
        </mxCell>
        <mxCell id="nr3jRr0A-heHZrgYLzdE-17" value="lenna internal structure" style="html=1;strokeColor=none;fillColor=none;align=center;verticalAlign=middle;spacingLeft=4;spacingRight=4;rotatable=0;points=[[0,0.5],[1,0.5]];resizeWidth=1;whiteSpace=wrap;" vertex="1" parent="nr3jRr0A-heHZrgYLzdE-16">
          <mxGeometry y="30" width="140" height="30" as="geometry" />
        </mxCell>
        <mxCell id="nr3jRr0A-heHZrgYLzdE-18" value="" style="swimlane;fontStyle=1;align=center;verticalAlign=top;horizontal=1;startSize=0;collapsible=0;marginBottom=0;html=1;strokeColor=none;fillColor=none;" vertex="1" parent="nr3jRr0A-heHZrgYLzdE-16">
          <mxGeometry y="60" width="140" height="300" as="geometry" />
        </mxCell>
        <mxCell id="nr3jRr0A-heHZrgYLzdE-20" value="property2" style="html=1;align=center;verticalAlign=middle;rotatable=0;whiteSpace=wrap;" vertex="1" parent="nr3jRr0A-heHZrgYLzdE-18">
          <mxGeometry width="100" height="30" relative="1" as="geometry">
            <mxPoint x="20" y="90" as="offset" />
          </mxGeometry>
        </mxCell>
        <mxCell id="nr3jRr0A-heHZrgYLzdE-23" value="Omni" style="swimlane;fontStyle=1;align=center;verticalAlign=top;childLayout=stackLayout;horizontal=1;startSize=30;horizontalStack=0;resizeParent=1;resizeParentMax=0;resizeLast=0;collapsible=0;marginBottom=0;html=1;whiteSpace=wrap;" vertex="1" parent="nr3jRr0A-heHZrgYLzdE-1">
          <mxGeometry x="320" y="80" width="140" height="360" as="geometry" />
        </mxCell>
        <mxCell id="nr3jRr0A-heHZrgYLzdE-24" value="lenna internal structure" style="html=1;strokeColor=none;fillColor=none;align=center;verticalAlign=middle;spacingLeft=4;spacingRight=4;rotatable=0;points=[[0,0.5],[1,0.5]];resizeWidth=1;whiteSpace=wrap;" vertex="1" parent="nr3jRr0A-heHZrgYLzdE-23">
          <mxGeometry y="30" width="140" height="30" as="geometry" />
        </mxCell>
        <mxCell id="nr3jRr0A-heHZrgYLzdE-25" value="" style="swimlane;fontStyle=1;align=center;verticalAlign=top;horizontal=1;startSize=0;collapsible=0;marginBottom=0;html=1;strokeColor=none;fillColor=none;" vertex="1" parent="nr3jRr0A-heHZrgYLzdE-23">
          <mxGeometry y="60" width="140" height="300" as="geometry" />
        </mxCell>
        <mxCell id="nr3jRr0A-heHZrgYLzdE-26" value="Func to check is channel exist" style="html=1;align=center;verticalAlign=middle;rotatable=0;whiteSpace=wrap;" vertex="1" parent="nr3jRr0A-heHZrgYLzdE-25">
          <mxGeometry width="100" height="30" relative="1" as="geometry">
            <mxPoint x="20" y="20" as="offset" />
          </mxGeometry>
        </mxCell>
        <mxCell id="nr3jRr0A-heHZrgYLzdE-29" value="PostgreSQL" style="swimlane;fontStyle=1;align=center;verticalAlign=top;childLayout=stackLayout;horizontal=1;startSize=30;horizontalStack=0;resizeParent=1;resizeParentMax=0;resizeLast=0;collapsible=0;marginBottom=0;html=1;whiteSpace=wrap;" vertex="1" parent="nr3jRr0A-heHZrgYLzdE-1">
          <mxGeometry x="460" y="80" width="140" height="360" as="geometry" />
        </mxCell>
        <mxCell id="nr3jRr0A-heHZrgYLzdE-30" value="lenna internal structure" style="html=1;strokeColor=none;fillColor=none;align=center;verticalAlign=middle;spacingLeft=4;spacingRight=4;rotatable=0;points=[[0,0.5],[1,0.5]];resizeWidth=1;whiteSpace=wrap;" vertex="1" parent="nr3jRr0A-heHZrgYLzdE-29">
          <mxGeometry y="30" width="140" height="30" as="geometry" />
        </mxCell>
        <mxCell id="nr3jRr0A-heHZrgYLzdE-31" value="" style="swimlane;fontStyle=1;align=center;verticalAlign=top;horizontal=1;startSize=0;collapsible=0;marginBottom=0;html=1;strokeColor=none;fillColor=none;" vertex="1" parent="nr3jRr0A-heHZrgYLzdE-29">
          <mxGeometry y="60" width="140" height="300" as="geometry" />
        </mxCell>
        <mxCell id="nr3jRr0A-heHZrgYLzdE-32" value="property1" style="html=1;align=center;verticalAlign=middle;rotatable=0;whiteSpace=wrap;" vertex="1" parent="nr3jRr0A-heHZrgYLzdE-31">
          <mxGeometry width="100" height="30" relative="1" as="geometry">
            <mxPoint x="20" y="20" as="offset" />
          </mxGeometry>
        </mxCell>
        <mxCell id="nr3jRr0A-heHZrgYLzdE-35" value="EC2" style="swimlane;fontStyle=1;align=center;verticalAlign=top;childLayout=stackLayout;horizontal=1;startSize=30;horizontalStack=0;resizeParent=1;resizeParentMax=0;resizeLast=0;collapsible=0;marginBottom=0;html=1;whiteSpace=wrap;" vertex="1" parent="nr3jRr0A-heHZrgYLzdE-1">
          <mxGeometry x="600" y="80" width="140" height="360" as="geometry" />
        </mxCell>
        <mxCell id="nr3jRr0A-heHZrgYLzdE-36" value="lenna internal structure" style="html=1;strokeColor=none;fillColor=none;align=center;verticalAlign=middle;spacingLeft=4;spacingRight=4;rotatable=0;points=[[0,0.5],[1,0.5]];resizeWidth=1;whiteSpace=wrap;" vertex="1" parent="nr3jRr0A-heHZrgYLzdE-35">
          <mxGeometry y="30" width="140" height="30" as="geometry" />
        </mxCell>
        <mxCell id="nr3jRr0A-heHZrgYLzdE-37" value="" style="swimlane;fontStyle=1;align=center;verticalAlign=top;horizontal=1;startSize=0;collapsible=0;marginBottom=0;html=1;strokeColor=none;fillColor=none;" vertex="1" parent="nr3jRr0A-heHZrgYLzdE-35">
          <mxGeometry y="60" width="140" height="300" as="geometry" />
        </mxCell>
        <mxCell id="nr3jRr0A-heHZrgYLzdE-38" value="property1" style="html=1;align=center;verticalAlign=middle;rotatable=0;whiteSpace=wrap;" vertex="1" parent="nr3jRr0A-heHZrgYLzdE-37">
          <mxGeometry width="100" height="30" relative="1" as="geometry">
            <mxPoint x="20" y="20" as="offset" />
          </mxGeometry>
        </mxCell>
        <mxCell id="nr3jRr0A-heHZrgYLzdE-51" value="responses&amp;nbsp;" style="edgeStyle=orthogonalEdgeStyle;rounded=0;orthogonalLoop=1;jettySize=auto;html=1;exitX=1;exitY=0.75;exitDx=0;exitDy=0;entryX=0;entryY=0.75;entryDx=0;entryDy=0;" edge="1" parent="nr3jRr0A-heHZrgYLzdE-1" source="nr3jRr0A-heHZrgYLzdE-14" target="nr3jRr0A-heHZrgYLzdE-26">
          <mxGeometry relative="1" as="geometry" />
        </mxCell>
        <mxCell id="nr3jRr0A-heHZrgYLzdE-52" value="request" style="edgeStyle=orthogonalEdgeStyle;rounded=0;orthogonalLoop=1;jettySize=auto;html=1;exitX=0;exitY=0.25;exitDx=0;exitDy=0;entryX=1;entryY=0.25;entryDx=0;entryDy=0;" edge="1" parent="nr3jRr0A-heHZrgYLzdE-1" source="nr3jRr0A-heHZrgYLzdE-26" target="nr3jRr0A-heHZrgYLzdE-14">
          <mxGeometry relative="1" as="geometry">
            <mxPoint x="310" y="167" as="sourcePoint" />
            <mxPoint x="160" y="170" as="targetPoint" />
          </mxGeometry>
        </mxCell>
      </root>
    </mxGraphModel>
  </diagram>
  <diagram id="8k8_csll_7N9_m_qhnQ9" name="Page-2">
    <mxGraphModel dx="880" dy="495" grid="1" gridSize="10" guides="1" tooltips="1" connect="1" arrows="1" fold="1" page="1" pageScale="1" pageWidth="850" pageHeight="1100" math="0" shadow="0">
      <root>
        <mxCell id="0" />
        <mxCell id="1" parent="0" />
      </root>
    </mxGraphModel>
  </diagram>
</mxfile>
